<?xml version="1.0" encoding="UTF-8"?>
<svg xmlns="http://www.w3.org/2000/svg" xmlns:xlink="http://www.w3.org/1999/xlink" width="100pt" height="100pt" viewBox="0 0 100 100" version="1.1">
<g id="surface133691">
<path style=" stroke:none;fill-rule:nonzero;fill:rgb(100%,100%,100%);fill-opacity:1;" d="M 17 94 C 10.925781 94 6 89.074219 6 83 L 6 17 C 6 10.925781 10.925781 6 17 6 L 83 6 C 89.074219 6 94 10.925781 94 17 L 94 83 C 94 89.074219 89.074219 94 83 94 Z M 17 94 "/>
<path style=" stroke:none;fill-rule:nonzero;fill:#042b52;fill-opacity:1;" d="M 72.601562 13.519531 C 71.84375 13.511719 71.164062 13.996094 70.925781 14.722656 L 62.289062 41.3125 L 37.710938 41.3125 L 29.074219 14.722656 C 28.84375 14.023438 28.199219 13.539062 27.457031 13.519531 C 26.71875 13.507812 26.054688 13.953125 25.789062 14.648438 L 15.378906 42.425781 C 15.371094 42.425781 15.371094 42.433594 15.367188 42.441406 L 10.15625 56.335938 C 9.882812 57.070312 10.128906 57.890625 10.765625 58.351562 L 48.96875 86.132812 L 48.976562 86.148438 C 48.980469 86.148438 48.980469 86.148438 48.980469 86.152344 C 49.003906 86.167969 49.03125 86.179688 49.050781 86.195312 C 49.078125 86.207031 49.097656 86.230469 49.125 86.242188 C 49.132812 86.242188 49.132812 86.25 49.136719 86.25 C 49.136719 86.25 49.144531 86.257812 49.152344 86.257812 C 49.160156 86.261719 49.164062 86.269531 49.179688 86.269531 C 49.1875 86.277344 49.199219 86.28125 49.207031 86.289062 C 49.238281 86.304688 49.28125 86.324219 49.320312 86.335938 C 49.320312 86.335938 49.320312 86.335938 49.320312 86.34375 C 49.363281 86.359375 49.402344 86.371094 49.4375 86.386719 C 49.445312 86.386719 49.445312 86.386719 49.449219 86.390625 C 49.476562 86.398438 49.503906 86.40625 49.539062 86.417969 C 49.550781 86.417969 49.566406 86.425781 49.585938 86.425781 C 49.585938 86.433594 49.585938 86.433594 49.585938 86.425781 C 49.621094 86.4375 49.652344 86.445312 49.6875 86.453125 C 49.734375 86.460938 49.777344 86.464844 49.824219 86.472656 C 49.890625 86.472656 49.964844 86.480469 50.035156 86.480469 C 50.101562 86.472656 50.164062 86.472656 50.222656 86.460938 C 50.25 86.460938 50.269531 86.460938 50.296875 86.453125 C 50.296875 86.453125 50.304688 86.453125 50.3125 86.453125 C 50.324219 86.445312 50.332031 86.445312 50.347656 86.445312 C 50.351562 86.445312 50.359375 86.4375 50.375 86.4375 C 50.386719 86.433594 50.40625 86.433594 50.421875 86.425781 C 50.449219 86.417969 50.46875 86.410156 50.488281 86.40625 C 50.503906 86.40625 50.507812 86.40625 50.515625 86.398438 C 50.523438 86.398438 50.53125 86.398438 50.535156 86.398438 C 50.5625 86.386719 50.597656 86.371094 50.625 86.363281 C 50.660156 86.351562 50.683594 86.335938 50.710938 86.324219 C 50.71875 86.324219 50.71875 86.324219 50.726562 86.316406 C 50.734375 86.316406 50.738281 86.316406 50.746094 86.308594 C 50.761719 86.304688 50.773438 86.296875 50.789062 86.289062 C 50.828125 86.269531 50.863281 86.25 50.894531 86.230469 C 50.910156 86.222656 50.917969 86.214844 50.921875 86.207031 C 50.929688 86.207031 50.9375 86.203125 50.941406 86.203125 C 50.96875 86.179688 50.996094 86.167969 51.023438 86.148438 L 51.039062 86.128906 L 89.242188 58.351562 C 89.871094 57.890625 90.117188 57.070312 89.84375 56.335938 L 84.648438 42.488281 C 84.640625 42.476562 84.632812 42.453125 84.632812 42.441406 L 74.210938 14.648438 C 73.953125 13.976562 73.324219 13.527344 72.601562 13.519531 Z M 20.585938 44.789062 L 35.1875 44.789062 L 45.359375 76.085938 Z M 64.8125 44.789062 L 79.414062 44.789062 L 54.640625 76.085938 Z M 17.539062 46.539062 L 40.769531 75.886719 L 13.871094 56.324219 Z M 82.460938 46.539062 L 86.128906 56.324219 L 59.230469 75.886719 Z M 82.460938 46.539062 "/>
</g>
</svg>
